<mxfile host="app.diagrams.net" modified="2024-04-13T01:33:45.203Z" agent="Mozilla/5.0 (Windows NT 10.0; Win64; x64) AppleWebKit/537.36 (KHTML, like Gecko) Chrome/123.0.0.0 Safari/537.36" etag="YG6vb7VBL8woEJMaxaWp" version="24.2.3" type="github">
  <diagram name="Page-1" id="e7e014a7-5840-1c2e-5031-d8a46d1fe8dd">
    <mxGraphModel dx="1292" dy="1453" grid="0" gridSize="10" guides="1" tooltips="1" connect="1" arrows="1" fold="1" page="1" pageScale="1" pageWidth="1169" pageHeight="826" background="none" math="0" shadow="0">
      <root>
        <mxCell id="0" />
        <mxCell id="1" parent="0" />
        <mxCell id="_Qwe62J3tgY_4_dlwT_e-44" style="edgeStyle=orthogonalEdgeStyle;rounded=0;orthogonalLoop=1;jettySize=auto;html=1;entryX=0;entryY=0.5;entryDx=0;entryDy=0;endArrow=none;endFill=0;" parent="1" source="_Qwe62J3tgY_4_dlwT_e-41" target="_Qwe62J3tgY_4_dlwT_e-42" edge="1">
          <mxGeometry relative="1" as="geometry" />
        </mxCell>
        <mxCell id="_Qwe62J3tgY_4_dlwT_e-41" value="Manager/Org" style="shape=umlActor;verticalLabelPosition=bottom;verticalAlign=top;html=1;outlineConnect=0;" parent="1" vertex="1">
          <mxGeometry x="325" y="525" width="30" height="60" as="geometry" />
        </mxCell>
        <mxCell id="_Qwe62J3tgY_4_dlwT_e-42" value="User" style="rounded=0;whiteSpace=wrap;html=1;" parent="1" vertex="1">
          <mxGeometry x="516" y="525" width="120" height="60" as="geometry" />
        </mxCell>
        <mxCell id="_Qwe62J3tgY_4_dlwT_e-46" value="1: login(email, password)" style="text;html=1;align=center;verticalAlign=middle;resizable=0;points=[];autosize=1;strokeColor=none;fillColor=none;" parent="1" vertex="1">
          <mxGeometry x="360" y="525" width="151" height="26" as="geometry" />
        </mxCell>
        <mxCell id="_Qwe62J3tgY_4_dlwT_e-50" style="edgeStyle=orthogonalEdgeStyle;rounded=0;orthogonalLoop=1;jettySize=auto;html=1;entryX=0;entryY=0.5;entryDx=0;entryDy=0;endArrow=blockThin;endFill=1;strokeWidth=1;" parent="1" edge="1">
          <mxGeometry relative="1" as="geometry">
            <mxPoint x="406.5" y="550" as="sourcePoint" />
            <mxPoint x="464.5" y="550" as="targetPoint" />
          </mxGeometry>
        </mxCell>
        <mxCell id="_Qwe62J3tgY_4_dlwT_e-52" value="&lt;h1 style=&quot;margin-top: 0px;&quot;&gt;&lt;font style=&quot;vertical-align: inherit;&quot;&gt;&lt;font style=&quot;vertical-align: inherit;&quot;&gt;Realizar login&lt;/font&gt;&lt;/font&gt;&lt;/h1&gt;" style="text;html=1;whiteSpace=wrap;overflow=hidden;rounded=0;" parent="1" vertex="1">
          <mxGeometry x="449" y="14" width="202" height="34" as="geometry" />
        </mxCell>
        <mxCell id="_Qwe62J3tgY_4_dlwT_e-63" style="edgeStyle=orthogonalEdgeStyle;rounded=0;orthogonalLoop=1;jettySize=auto;html=1;entryX=0;entryY=0.5;entryDx=0;entryDy=0;" parent="1" source="_Qwe62J3tgY_4_dlwT_e-54" target="_Qwe62J3tgY_4_dlwT_e-56" edge="1">
          <mxGeometry relative="1" as="geometry" />
        </mxCell>
        <mxCell id="_Qwe62J3tgY_4_dlwT_e-54" value="" style="ellipse;fillColor=strokeColor;html=1;" parent="1" vertex="1">
          <mxGeometry x="251" y="707" width="30" height="30" as="geometry" />
        </mxCell>
        <mxCell id="_Qwe62J3tgY_4_dlwT_e-55" value="" style="ellipse;html=1;shape=endState;fillColor=strokeColor;" parent="1" vertex="1">
          <mxGeometry x="697" y="707" width="30" height="30" as="geometry" />
        </mxCell>
        <mxCell id="_Qwe62J3tgY_4_dlwT_e-64" style="edgeStyle=orthogonalEdgeStyle;rounded=0;orthogonalLoop=1;jettySize=auto;html=1;" parent="1" source="_Qwe62J3tgY_4_dlwT_e-56" target="_Qwe62J3tgY_4_dlwT_e-57" edge="1">
          <mxGeometry relative="1" as="geometry" />
        </mxCell>
        <mxCell id="_Qwe62J3tgY_4_dlwT_e-56" value="insere login e senha" style="rounded=1;whiteSpace=wrap;html=1;" parent="1" vertex="1">
          <mxGeometry x="318" y="692" width="120" height="60" as="geometry" />
        </mxCell>
        <mxCell id="3SMw9yjr38-sE6QuIbaz-4" style="edgeStyle=orthogonalEdgeStyle;rounded=0;orthogonalLoop=1;jettySize=auto;html=1;exitX=1;exitY=0.5;exitDx=0;exitDy=0;entryX=0;entryY=0.5;entryDx=0;entryDy=0;" parent="1" source="_Qwe62J3tgY_4_dlwT_e-57" target="_Qwe62J3tgY_4_dlwT_e-62" edge="1">
          <mxGeometry relative="1" as="geometry" />
        </mxCell>
        <mxCell id="_Qwe62J3tgY_4_dlwT_e-57" value="&lt;font style=&quot;vertical-align: inherit;&quot;&gt;&lt;font style=&quot;vertical-align: inherit;&quot;&gt;&lt;font style=&quot;vertical-align: inherit;&quot;&gt;&lt;font style=&quot;vertical-align: inherit;&quot;&gt;sistema verifica se as credenciais foram passadas corretamente&lt;/font&gt;&lt;/font&gt;&lt;/font&gt;&lt;/font&gt;" style="rounded=1;whiteSpace=wrap;html=1;" parent="1" vertex="1">
          <mxGeometry x="466" y="692" width="120" height="60" as="geometry" />
        </mxCell>
        <mxCell id="_Qwe62J3tgY_4_dlwT_e-69" style="edgeStyle=orthogonalEdgeStyle;rounded=0;orthogonalLoop=1;jettySize=auto;html=1;exitX=1;exitY=0.5;exitDx=0;exitDy=0;entryX=0;entryY=0.5;entryDx=0;entryDy=0;" parent="1" source="_Qwe62J3tgY_4_dlwT_e-62" target="_Qwe62J3tgY_4_dlwT_e-55" edge="1">
          <mxGeometry relative="1" as="geometry" />
        </mxCell>
        <mxCell id="aRrdokLNTCrjEWbx0M8m-33" value="Sim" style="edgeLabel;html=1;align=center;verticalAlign=middle;resizable=0;points=[];" parent="_Qwe62J3tgY_4_dlwT_e-69" vertex="1" connectable="0">
          <mxGeometry x="-0.2096" y="1" relative="1" as="geometry">
            <mxPoint as="offset" />
          </mxGeometry>
        </mxCell>
        <mxCell id="aRrdokLNTCrjEWbx0M8m-7" style="edgeStyle=orthogonalEdgeStyle;rounded=0;orthogonalLoop=1;jettySize=auto;html=1;exitX=0.5;exitY=0;exitDx=0;exitDy=0;entryX=0.5;entryY=0;entryDx=0;entryDy=0;" parent="1" source="_Qwe62J3tgY_4_dlwT_e-62" target="_Qwe62J3tgY_4_dlwT_e-56" edge="1">
          <mxGeometry relative="1" as="geometry">
            <Array as="points">
              <mxPoint x="642" y="652" />
              <mxPoint x="378" y="652" />
            </Array>
          </mxGeometry>
        </mxCell>
        <mxCell id="aRrdokLNTCrjEWbx0M8m-34" value="NÃ£o" style="edgeLabel;html=1;align=center;verticalAlign=middle;resizable=0;points=[];" parent="aRrdokLNTCrjEWbx0M8m-7" vertex="1" connectable="0">
          <mxGeometry x="0.0687" y="-2" relative="1" as="geometry">
            <mxPoint as="offset" />
          </mxGeometry>
        </mxCell>
        <mxCell id="_Qwe62J3tgY_4_dlwT_e-62" value="" style="rhombus;" parent="1" vertex="1">
          <mxGeometry x="627" y="707" width="30" height="30" as="geometry" />
        </mxCell>
        <mxCell id="_h2FnvsFGVvzffmGYvuH-1" style="edgeStyle=orthogonalEdgeStyle;rounded=0;orthogonalLoop=1;jettySize=auto;html=1;entryX=1;entryY=0.5;entryDx=0;entryDy=0;" edge="1" parent="1" source="_h2FnvsFGVvzffmGYvuH-2" target="_h2FnvsFGVvzffmGYvuH-20">
          <mxGeometry relative="1" as="geometry" />
        </mxCell>
        <mxCell id="_h2FnvsFGVvzffmGYvuH-2" value="Org" style="swimlane;fontStyle=0;align=center;verticalAlign=top;childLayout=stackLayout;horizontal=1;startSize=26;horizontalStack=0;resizeParent=1;resizeLast=0;collapsible=1;marginBottom=0;rounded=0;shadow=0;strokeWidth=1;" vertex="1" parent="1">
          <mxGeometry x="712" y="-596" width="284.25" height="138" as="geometry">
            <mxRectangle x="340" y="380" width="170" height="26" as="alternateBounds" />
          </mxGeometry>
        </mxCell>
        <mxCell id="_h2FnvsFGVvzffmGYvuH-3" value="&lt;span style=&quot;background-color: rgb(255, 255, 255);&quot;&gt;- User: User&lt;/span&gt;" style="text;strokeColor=none;fillColor=none;align=left;verticalAlign=top;spacingLeft=4;spacingRight=4;overflow=hidden;rotatable=0;points=[[0,0.5],[1,0.5]];portConstraint=eastwest;whiteSpace=wrap;html=1;" vertex="1" parent="_h2FnvsFGVvzffmGYvuH-2">
          <mxGeometry y="26" width="284.25" height="26" as="geometry" />
        </mxCell>
        <mxCell id="_h2FnvsFGVvzffmGYvuH-4" value="-&amp;nbsp;ProcessingTax: BigDecimal" style="text;strokeColor=none;fillColor=none;align=left;verticalAlign=top;spacingLeft=4;spacingRight=4;overflow=hidden;rotatable=0;points=[[0,0.5],[1,0.5]];portConstraint=eastwest;whiteSpace=wrap;html=1;" vertex="1" parent="_h2FnvsFGVvzffmGYvuH-2">
          <mxGeometry y="52" width="284.25" height="26" as="geometry" />
        </mxCell>
        <mxCell id="_h2FnvsFGVvzffmGYvuH-5" value="" style="line;strokeWidth=1;fillColor=none;align=left;verticalAlign=middle;spacingTop=-1;spacingLeft=3;spacingRight=3;rotatable=0;labelPosition=right;points=[];portConstraint=eastwest;strokeColor=inherit;" vertex="1" parent="_h2FnvsFGVvzffmGYvuH-2">
          <mxGeometry y="78" width="284.25" height="8" as="geometry" />
        </mxCell>
        <mxCell id="_h2FnvsFGVvzffmGYvuH-6" value="+ RegisterProducer(Producer: Producer): Producer" style="text;strokeColor=none;fillColor=none;align=left;verticalAlign=top;spacingLeft=4;spacingRight=4;overflow=hidden;rotatable=0;points=[[0,0.5],[1,0.5]];portConstraint=eastwest;whiteSpace=wrap;html=1;" vertex="1" parent="_h2FnvsFGVvzffmGYvuH-2">
          <mxGeometry y="86" width="284.25" height="26" as="geometry" />
        </mxCell>
        <mxCell id="_h2FnvsFGVvzffmGYvuH-7" value="+ Register&lt;span style=&quot;text-align: center; text-wrap: nowrap;&quot;&gt;Manager(&lt;/span&gt;&lt;span style=&quot;text-align: center; text-wrap: nowrap;&quot;&gt;Manager:&amp;nbsp;&lt;/span&gt;&lt;span style=&quot;text-align: center; text-wrap: nowrap;&quot;&gt;Manager)&lt;/span&gt;&lt;span style=&quot;text-wrap: nowrap; text-align: center;&quot;&gt;:&amp;nbsp;&lt;/span&gt;&lt;span style=&quot;text-wrap: nowrap; text-align: center;&quot;&gt;Manager&lt;/span&gt;" style="text;strokeColor=none;fillColor=none;align=left;verticalAlign=top;spacingLeft=4;spacingRight=4;overflow=hidden;rotatable=0;points=[[0,0.5],[1,0.5]];portConstraint=eastwest;whiteSpace=wrap;html=1;" vertex="1" parent="_h2FnvsFGVvzffmGYvuH-2">
          <mxGeometry y="112" width="284.25" height="26" as="geometry" />
        </mxCell>
        <mxCell id="_h2FnvsFGVvzffmGYvuH-8" style="edgeStyle=orthogonalEdgeStyle;rounded=0;orthogonalLoop=1;jettySize=auto;html=1;" edge="1" parent="1" source="_h2FnvsFGVvzffmGYvuH-10" target="_h2FnvsFGVvzffmGYvuH-2">
          <mxGeometry relative="1" as="geometry" />
        </mxCell>
        <mxCell id="_h2FnvsFGVvzffmGYvuH-9" style="edgeStyle=orthogonalEdgeStyle;rounded=0;orthogonalLoop=1;jettySize=auto;html=1;" edge="1" parent="1" source="_h2FnvsFGVvzffmGYvuH-10" target="_h2FnvsFGVvzffmGYvuH-18">
          <mxGeometry relative="1" as="geometry" />
        </mxCell>
        <mxCell id="_h2FnvsFGVvzffmGYvuH-10" value="User" style="swimlane;fontStyle=1;align=center;verticalAlign=top;childLayout=stackLayout;horizontal=1;startSize=26;horizontalStack=0;resizeParent=1;resizeParentMax=0;resizeLast=0;collapsible=1;marginBottom=0;whiteSpace=wrap;html=1;labelBackgroundColor=none;" vertex="1" parent="1">
          <mxGeometry x="461" y="-351" width="479" height="190" as="geometry" />
        </mxCell>
        <mxCell id="_h2FnvsFGVvzffmGYvuH-11" value="-&amp;nbsp;Auth: Auth" style="text;strokeColor=none;fillColor=none;align=left;verticalAlign=top;spacingLeft=4;spacingRight=4;overflow=hidden;rotatable=0;points=[[0,0.5],[1,0.5]];portConstraint=eastwest;whiteSpace=wrap;html=1;labelBackgroundColor=none;" vertex="1" parent="_h2FnvsFGVvzffmGYvuH-10">
          <mxGeometry y="26" width="479" height="26" as="geometry" />
        </mxCell>
        <mxCell id="_h2FnvsFGVvzffmGYvuH-12" value="-&amp;nbsp;Profile: Profile" style="text;strokeColor=none;fillColor=none;align=left;verticalAlign=top;spacingLeft=4;spacingRight=4;overflow=hidden;rotatable=0;points=[[0,0.5],[1,0.5]];portConstraint=eastwest;whiteSpace=wrap;html=1;labelBackgroundColor=none;" vertex="1" parent="_h2FnvsFGVvzffmGYvuH-10">
          <mxGeometry y="52" width="479" height="26" as="geometry" />
        </mxCell>
        <mxCell id="_h2FnvsFGVvzffmGYvuH-13" value="" style="line;strokeWidth=1;fillColor=none;align=left;verticalAlign=middle;spacingTop=-1;spacingLeft=3;spacingRight=3;rotatable=0;labelPosition=right;points=[];portConstraint=eastwest;strokeColor=inherit;" vertex="1" parent="_h2FnvsFGVvzffmGYvuH-10">
          <mxGeometry y="78" width="479" height="8" as="geometry" />
        </mxCell>
        <mxCell id="_h2FnvsFGVvzffmGYvuH-14" value="+ Login(email:String, password:String)" style="text;strokeColor=none;fillColor=none;align=left;verticalAlign=top;spacingLeft=4;spacingRight=4;overflow=hidden;rotatable=0;points=[[0,0.5],[1,0.5]];portConstraint=eastwest;whiteSpace=wrap;html=1;" vertex="1" parent="_h2FnvsFGVvzffmGYvuH-10">
          <mxGeometry y="86" width="479" height="26" as="geometry" />
        </mxCell>
        <mxCell id="_h2FnvsFGVvzffmGYvuH-15" value="+ Register(email:String, password:String)" style="text;strokeColor=none;fillColor=none;align=left;verticalAlign=top;spacingLeft=4;spacingRight=4;overflow=hidden;rotatable=0;points=[[0,0.5],[1,0.5]];portConstraint=eastwest;whiteSpace=wrap;html=1;" vertex="1" parent="_h2FnvsFGVvzffmGYvuH-10">
          <mxGeometry y="112" width="479" height="26" as="geometry" />
        </mxCell>
        <mxCell id="_h2FnvsFGVvzffmGYvuH-16" value="+ requestPasswordReset(email:String): String" style="text;strokeColor=none;fillColor=none;align=left;verticalAlign=top;spacingLeft=4;spacingRight=4;overflow=hidden;rotatable=0;points=[[0,0.5],[1,0.5]];portConstraint=eastwest;whiteSpace=wrap;html=1;" vertex="1" parent="_h2FnvsFGVvzffmGYvuH-10">
          <mxGeometry y="138" width="479" height="26" as="geometry" />
        </mxCell>
        <mxCell id="_h2FnvsFGVvzffmGYvuH-17" value="+ resetPassword(password:String, passwordConfirmation:String, verifyCode:String)" style="text;strokeColor=none;fillColor=none;align=left;verticalAlign=top;spacingLeft=4;spacingRight=4;overflow=hidden;rotatable=0;points=[[0,0.5],[1,0.5]];portConstraint=eastwest;whiteSpace=wrap;html=1;" vertex="1" parent="_h2FnvsFGVvzffmGYvuH-10">
          <mxGeometry y="164" width="479" height="26" as="geometry" />
        </mxCell>
        <mxCell id="_h2FnvsFGVvzffmGYvuH-18" value="Manager" style="swimlane;fontStyle=0;align=center;verticalAlign=top;childLayout=stackLayout;horizontal=1;startSize=26;horizontalStack=0;resizeParent=1;resizeLast=0;collapsible=1;marginBottom=0;rounded=0;shadow=0;strokeWidth=1;" vertex="1" parent="1">
          <mxGeometry x="436" y="-596" width="221" height="170" as="geometry">
            <mxRectangle x="340" y="380" width="170" height="26" as="alternateBounds" />
          </mxGeometry>
        </mxCell>
        <mxCell id="_h2FnvsFGVvzffmGYvuH-19" value="-&lt;span style=&quot;background-color: rgb(255, 255, 255);&quot;&gt;&amp;nbsp;User: User&lt;/span&gt;" style="text;strokeColor=none;fillColor=none;align=left;verticalAlign=top;spacingLeft=4;spacingRight=4;overflow=hidden;rotatable=0;points=[[0,0.5],[1,0.5]];portConstraint=eastwest;whiteSpace=wrap;html=1;" vertex="1" parent="_h2FnvsFGVvzffmGYvuH-18">
          <mxGeometry y="26" width="221" height="26" as="geometry" />
        </mxCell>
        <mxCell id="_h2FnvsFGVvzffmGYvuH-20" value="-&amp;nbsp;A&lt;span style=&quot;text-align: center; text-wrap: nowrap;&quot;&gt;ctive&lt;/span&gt;:&amp;nbsp;&lt;span style=&quot;text-align: center; text-wrap: nowrap;&quot;&gt;Bloean&lt;/span&gt;" style="text;strokeColor=none;fillColor=none;align=left;verticalAlign=top;spacingLeft=4;spacingRight=4;overflow=hidden;rotatable=0;points=[[0,0.5],[1,0.5]];portConstraint=eastwest;whiteSpace=wrap;html=1;" vertex="1" parent="_h2FnvsFGVvzffmGYvuH-18">
          <mxGeometry y="52" width="221" height="26" as="geometry" />
        </mxCell>
        <mxCell id="_h2FnvsFGVvzffmGYvuH-21" value="-&amp;nbsp;Org: Org" style="text;strokeColor=none;fillColor=none;align=left;verticalAlign=top;spacingLeft=4;spacingRight=4;overflow=hidden;rotatable=0;points=[[0,0.5],[1,0.5]];portConstraint=eastwest;whiteSpace=wrap;html=1;" vertex="1" parent="_h2FnvsFGVvzffmGYvuH-18">
          <mxGeometry y="78" width="221" height="26" as="geometry" />
        </mxCell>
        <mxCell id="_h2FnvsFGVvzffmGYvuH-22" value="" style="line;strokeWidth=1;fillColor=none;align=left;verticalAlign=middle;spacingTop=-1;spacingLeft=3;spacingRight=3;rotatable=0;labelPosition=right;points=[];portConstraint=eastwest;strokeColor=inherit;" vertex="1" parent="_h2FnvsFGVvzffmGYvuH-18">
          <mxGeometry y="104" width="221" height="8" as="geometry" />
        </mxCell>
        <mxCell id="_h2FnvsFGVvzffmGYvuH-23" value="+&amp;nbsp;ToggleActive:()" style="text;strokeColor=none;fillColor=none;align=left;verticalAlign=top;spacingLeft=4;spacingRight=4;overflow=hidden;rotatable=0;points=[[0,0.5],[1,0.5]];portConstraint=eastwest;whiteSpace=wrap;html=1;" vertex="1" parent="_h2FnvsFGVvzffmGYvuH-18">
          <mxGeometry y="112" width="221" height="26" as="geometry" />
        </mxCell>
        <mxCell id="_h2FnvsFGVvzffmGYvuH-24" value="+ ListAll()" style="text;strokeColor=none;fillColor=none;align=left;verticalAlign=top;spacingLeft=4;spacingRight=4;overflow=hidden;rotatable=0;points=[[0,0.5],[1,0.5]];portConstraint=eastwest;whiteSpace=wrap;html=1;" vertex="1" parent="_h2FnvsFGVvzffmGYvuH-18">
          <mxGeometry y="138" width="221" height="26" as="geometry" />
        </mxCell>
      </root>
    </mxGraphModel>
  </diagram>
</mxfile>
